<svg width="160" height="160" viewBox="0 0 160 160" fill="none" xmlns="http://www.w3.org/2000/svg">
<g id="Selling 3">
<path id="Vector" d="M80 152C119.76 152 152 119.76 152 80C152 40.24 119.76 8 80 8C40.24 8 8 40.24 8 80C8 119.76 40.24 152 80 152Z" fill="#E2F5FE"/>
<path id="Vector_2" d="M132.1 49.9C144.195 49.9 154 40.095 154 28C154 15.905 144.195 6.1 132.1 6.1C120.005 6.1 110.2 15.905 110.2 28C110.2 40.095 120.005 49.9 132.1 49.9Z" fill="#F04432" stroke="white" stroke-width="2.19"/>
<g id="Group">
<path id="Vector_3" d="M131 36.25H142" stroke="white" stroke-width="2" stroke-linecap="round" stroke-linejoin="round"/>
<path id="Vector_4" d="M131 28.55H142" stroke="white" stroke-width="2" stroke-linecap="round" stroke-linejoin="round"/>
<path id="Vector_5" d="M131 20.85H142" stroke="white" stroke-width="2" stroke-linecap="round" stroke-linejoin="round"/>
<path id="Vector_6" d="M122.2 20.85L123.3 21.95L126.6 18.65" stroke="white" stroke-width="2" stroke-linecap="round" stroke-linejoin="round"/>
<path id="Vector_7" d="M122.2 28.55L123.3 29.65L126.6 26.35" stroke="white" stroke-width="2" stroke-linecap="round" stroke-linejoin="round"/>
<path id="Vector_8" d="M122.2 36.25L123.3 37.35L126.6 34.05" stroke="white" stroke-width="2" stroke-linecap="round" stroke-linejoin="round"/>
</g>
<g id="Group_2">
<path id="Vector_9" d="M34.77 16.19C30.34 16.19 26.73 19.8 26.73 24.23V135.78C26.73 140.21 30.34 143.82 34.77 143.82H79.27C83.7 143.82 87.31 140.21 87.31 135.78V24.22C87.31 19.79 83.7 16.18 79.27 16.18H34.77V16.19Z" fill="white"/>
<path id="Vector_10" d="M79.27 17.06C83.23 17.06 86.44 20.28 86.44 24.23V135.78C86.44 139.73 83.22 142.95 79.27 142.95H34.77C30.81 142.95 27.6 139.74 27.6 135.78V24.23C27.6 20.28 30.82 17.06 34.77 17.06H79.27ZM79.27 14.19H34.77C29.22 14.19 24.73 18.68 24.73 24.23V135.78C24.73 141.32 29.23 145.82 34.77 145.82H79.27C84.82 145.82 89.31 141.32 89.31 135.78V24.23C89.31 18.69 84.81 14.19 79.27 14.19Z" fill="#0D63C9"/>
<path id="Vector_11" d="M43.4301 21.72H69.1101C70.6901 21.72 71.9801 20.44 71.9801 18.85V15.69H40.5601V18.85C40.5601 20.43 41.8401 21.72 43.4301 21.72Z" fill="#0D63C9"/>
<path id="Vector_12" d="M99.3299 137.94L99.3499 137.11C99.3599 136.73 99.6199 136.41 99.9899 136.33L100.09 136.31L104.52 138.41L111.28 144.51L110.89 146.09L109.31 146.22C108.85 146.26 108.39 146.12 108.03 145.83L100.01 139.41C99.5699 139.06 99.3199 138.52 99.3299 137.95V137.94Z" fill="#7EC4FA"/>
<path id="Vector_13" d="M103.95 132.36C103.75 132.38 103.57 132.47 103.44 132.61L100.09 136.3L104 139.6C104.43 139.97 104.75 140.46 104.91 141C104.99 141.29 105.16 141.54 105.4 141.72L108.51 144.11C108.73 144.28 109.01 144.38 109.29 144.4L111.28 144.49L112.83 143.63L109.12 139.38L105.56 133.41L104.53 132.54C104.37 132.41 104.17 132.34 103.96 132.36H103.95Z" fill="#002652"/>
<path id="Vector_14" d="M104.13 130.03L104.06 131.13C104.02 131.8 104.06 132.48 104.17 133.14L104.39 134.37C104.52 135.13 104.96 135.8 105.59 136.24C106.14 136.62 106.8 136.79 107.46 136.74L107.79 136.71L104.13 130.04V130.03Z" fill="#C78982"/>
<path id="Vector_15" d="M82.8301 71.78L83.2301 53C83.2901 50.38 85.4101 48.28 88.0301 48.25L95.3901 48.16L107.55 48.71C109.3 48.79 110.87 49.85 111.59 51.44L119.25 68.22C119.55 68.89 119.59 69.65 119.35 70.34L118.95 71.48C118.53 72.69 117.36 73.47 116.08 73.39L113.13 69.49L111.88 70.17L114.09 80.32L91.2701 84.85L89.6201 72.71L82.8201 71.76L82.8301 71.78Z" fill="#6FCFFA"/>
<path id="Vector_16" d="M94.43 47.37L93.81 47.42C93.28 47.46 92.76 47.27 92.38 46.9L91.71 46.24C91.17 45.71 90.92 44.94 91.04 44.2L91.92 38.62C92.3 36.23 94.26 34.4 96.68 34.2L98.43 34.05C100.25 33.9 102.03 34.71 103.1 36.19C103.79 37.14 104.15 38.3 104.12 39.47L104.09 40.88C104.08 41.38 104.27 41.85 104.62 42.21L104.9 42.49C105.61 43.21 105.69 44.34 105.09 45.16L102.27 48.95L99.5 49.39L94.42 47.37H94.43Z" fill="#002652"/>
<path id="Vector_17" d="M93.64 47.41L93.28 43.09C93.19 41.99 94 41.03 95.1 40.94L96.37 40.83C96.5 40.82 96.62 40.92 96.63 41.05L96.71 41.98C96.78 42.86 97.56 43.52 98.44 43.44L99.63 43.34C100.19 43.29 100.69 43.71 100.73 44.27L101 47.44C101.02 47.63 101.11 47.8 101.25 47.93C101.39 48.05 101.48 48.23 101.5 48.42L101.6 49.56C101.77 51.53 100.3 53.26 98.33 53.43C96.36 53.6 94.63 52.13 94.46 50.16L94.27 47.95L93.65 47.42L93.64 47.41Z" fill="#C78982"/>
<path id="Vector_18" d="M107.674 66.2995L97.8785 67.1203C97.6804 67.1369 97.5332 67.311 97.5498 67.5091L97.6191 68.3362C97.6357 68.5343 97.8098 68.6815 98.008 68.6649L107.804 67.8441C108.002 67.8274 108.149 67.6534 108.132 67.4552L108.063 66.6281C108.046 66.43 107.872 66.2829 107.674 66.2995Z" fill="#002652"/>
<path id="Vector_19" d="M123.93 111.41L114.02 80.02L91.52 84.06L92.73 89.42L98.21 110.74L99.26 118.44C99.65 121.31 100.55 124.09 101.92 126.64L110.98 143.52L116.9 142.76L112.9 130.66L123.13 116.45C124.18 114.99 124.48 113.12 123.94 111.41H123.93ZM112.07 112.89C111.21 114.08 110.48 115.35 109.89 116.7L108.97 118.82L106.64 109.83L107.17 108.84C107.33 108.55 107.39 108.22 107.37 107.9L106.77 100.69L113.46 110.99L112.08 112.89H112.07Z" fill="#0C59B5"/>
<path id="Vector_20" d="M111.6 143.39L111.54 142.63C111.46 141.69 112.17 140.88 113.11 140.83L114.83 140.75C115.5 140.72 116.13 141.1 116.42 141.71L116.91 142.77L119.02 145.07C119.56 145.66 119.89 146.42 119.96 147.22L120.05 148.33L112.08 149L111.07 146.52C110.86 146.01 110.78 145.47 110.82 144.92L110.88 144.18C110.9 143.99 111.05 143.83 111.24 143.82C111.46 143.8 111.62 143.61 111.6 143.39Z" fill="#002652"/>
<path id="Vector_21" d="M115.64 147.8L117.16 147.67C117.35 147.65 117.53 147.74 117.65 147.89L118.11 148.49L120.04 148.33L119.41 149.49C119.15 149.97 118.67 150.28 118.13 150.33L114.05 150.67C113.4 150.72 112.79 150.38 112.49 149.81L112.07 149L115.09 148.75L115.13 148.32C115.15 148.05 115.37 147.84 115.64 147.81V147.8Z" fill="#7EC4FA"/>
<path id="Vector_22" d="M115.37 73.78C114.71 73.83 114.07 73.6 113.6 73.13L113.07 72.6C112.5 72.03 112.09 71.33 111.87 70.56L111.64 69.75C111.55 69.42 111.22 69.22 110.89 69.28L108.29 69.72C107.62 69.83 106.93 69.66 106.39 69.24L104.51 69.4C103.68 69.47 102.85 69.4 102.04 69.21L100.99 68.95C100.81 68.91 100.68 68.75 100.67 68.57C100.65 68.34 100.82 68.13 101.06 68.11L102.03 68.03C102.35 68 102.68 68.01 103 68.04L103.81 68.13C104.69 68.23 105.59 68.07 106.38 67.67L108.49 66.61C108.68 66.51 108.83 66.35 108.9 66.15L108.93 66.07C109 65.87 109 65.65 108.91 65.46L108.32 65.75C108.11 65.85 107.89 65.91 107.66 65.93L106.97 65.99C106.75 66.01 106.56 65.87 106.5 65.66C106.46 65.5 106.5 65.34 106.63 65.23L107.19 64.71C107.62 64.31 108.17 64.06 108.76 64.01H108.83C109.25 63.97 109.67 64.04 110.06 64.2L112.79 65.35L117.14 67.85C118.01 68.35 118.57 69.24 118.66 70.23C118.77 71.52 118.04 72.74 116.85 73.27L116.09 73.6C115.86 73.7 115.62 73.76 115.38 73.78H115.37Z" fill="#C78982"/>
<path id="Vector_23" d="M83.77 70.69L92.57 66.34C92.73 66.26 92.88 66.17 93.03 66.06L93.84 65.46C94.01 65.33 94.2 65.22 94.39 65.14L96.17 64.33C96.72 64.08 97.37 64.17 97.84 64.56L98.62 65.22C98.85 65.41 98.85 65.77 98.62 65.96C98.47 66.09 98.26 66.11 98.08 66.02L97.28 65.61C97.1 65.52 96.88 65.61 96.81 65.79L96.76 65.92C96.72 66.02 96.76 66.13 96.85 66.18L97.42 66.76C97.93 67.28 99.16 67.96 99.79 68.28C99.98 68.38 100.03 68.63 99.88 68.8L99.66 69.04C99.44 69.34 99.11 69.54 98.74 69.58L96.45 69.87C96.09 69.91 95.73 69.91 95.37 69.86L94.38 69.72C94.18 69.69 93.97 69.76 93.84 69.91L89.33 74.76C88.56 75.59 87.51 76.1 86.39 76.19L85.13 76.3C84.52 76.35 83.91 76.16 83.44 75.78C82.94 75.37 82.63 74.78 82.58 74.14L82.48 73C82.4 72.03 82.92 71.11 83.79 70.68L83.77 70.69Z" fill="#C78982"/>
</g>
<path id="Vector_24" d="M42.45 84.7H37.26C35.1945 84.7 33.52 86.3745 33.52 88.44V93.63C33.52 95.6955 35.1945 97.37 37.26 97.37H42.45C44.5156 97.37 46.19 95.6955 46.19 93.63V88.44C46.19 86.3745 44.5156 84.7 42.45 84.7Z" fill="#F04432"/>
<path id="Vector_25" d="M42.45 105.52C43.41 105.52 44.19 106.3 44.19 107.26V112.45C44.19 113.41 43.41 114.19 42.45 114.19H37.26C36.3 114.19 35.52 113.41 35.52 112.45V107.26C35.52 106.3 36.3 105.52 37.26 105.52H42.45ZM42.45 103.52H37.26C35.19 103.52 33.52 105.19 33.52 107.26V112.45C33.52 114.52 35.19 116.19 37.26 116.19H42.45C44.52 116.19 46.19 114.52 46.19 112.45V107.26C46.19 105.19 44.52 103.52 42.45 103.52Z" fill="#D2D3DA"/>
<path id="Vector_26" d="M42.45 124.34C43.41 124.34 44.19 125.12 44.19 126.08V131.27C44.19 132.23 43.41 133.01 42.45 133.01H37.26C36.3 133.01 35.52 132.23 35.52 131.27V126.08C35.52 125.12 36.3 124.34 37.26 124.34H42.45ZM42.45 122.34H37.26C35.19 122.34 33.52 124.01 33.52 126.08V131.27C33.52 133.34 35.19 135.01 37.26 135.01H42.45C44.52 135.01 46.19 133.34 46.19 131.27V126.08C46.19 124.01 44.52 122.34 42.45 122.34Z" fill="#D2D3DA"/>
<path id="Vector_27" d="M36.9399 90.74L39.0799 92.88L42.7699 89.19" stroke="white" stroke-width="2" stroke-linecap="round" stroke-linejoin="round"/>
<path id="Vector_28" d="M76.41 29.09H36.55C34.8766 29.09 33.52 30.4466 33.52 32.12V75.15C33.52 76.8234 34.8766 78.18 36.55 78.18H76.41C78.0834 78.18 79.44 76.8234 79.44 75.15V32.12C79.44 30.4466 78.0834 29.09 76.41 29.09Z" stroke="#D2D3DA" stroke-miterlimit="10" stroke-linecap="round"/>
<g id="Group_3">
<path id="Vector_29" d="M61.8601 63.37H39.9501C39.2156 63.37 38.6201 63.9655 38.6201 64.7V64.71C38.6201 65.4445 39.2156 66.04 39.9501 66.04H61.8601C62.5947 66.04 63.1901 65.4445 63.1901 64.71V64.7C63.1901 63.9655 62.5947 63.37 61.8601 63.37Z" fill="#D2D3DA"/>
<path id="Vector_30" d="M71.2601 68.62H39.9501C39.2156 68.62 38.6201 69.2155 38.6201 69.95V69.96C38.6201 70.6945 39.2156 71.29 39.9501 71.29H71.2601C71.9947 71.29 72.5901 70.6945 72.5901 69.96V69.95C72.5901 69.2155 71.9947 68.62 71.2601 68.62Z" fill="#D2D3DA"/>
</g>
<g id="Group_4">
<path id="Vector_31" d="M61.9399 129.97H53.0299C52.2954 129.97 51.7 130.565 51.7 131.3V131.31C51.7 132.045 52.2954 132.64 53.0299 132.64H61.9399C62.6745 132.64 63.27 132.045 63.27 131.31V131.3C63.27 130.565 62.6745 129.97 61.9399 129.97Z" fill="#D2D3DA"/>
<path id="Vector_32" d="M71.3399 124.72H53.0299C52.2954 124.72 51.7 125.315 51.7 126.05V126.06C51.7 126.795 52.2954 127.39 53.0299 127.39H71.3399C72.0745 127.39 72.6699 126.795 72.6699 126.06V126.05C72.6699 125.315 72.0745 124.72 71.3399 124.72Z" fill="#D2D3DA"/>
</g>
<g id="Group_5">
<path id="Vector_33" d="M61.9399 111.15H53.0299C52.2954 111.15 51.7 111.745 51.7 112.48V112.49C51.7 113.225 52.2954 113.82 53.0299 113.82H61.9399C62.6745 113.82 63.27 113.225 63.27 112.49V112.48C63.27 111.745 62.6745 111.15 61.9399 111.15Z" fill="#D2D3DA"/>
<path id="Vector_34" d="M71.3399 105.9H53.0299C52.2954 105.9 51.7 106.495 51.7 107.23V107.24C51.7 107.975 52.2954 108.57 53.0299 108.57H71.3399C72.0745 108.57 72.6699 107.975 72.6699 107.24V107.23C72.6699 106.495 72.0745 105.9 71.3399 105.9Z" fill="#D2D3DA"/>
</g>
<g id="Group_6">
<path id="Vector_35" d="M61.9399 92.4H53.0299C52.2954 92.4 51.7 92.9955 51.7 93.73V93.74C51.7 94.4745 52.2954 95.07 53.0299 95.07H61.9399C62.6745 95.07 63.27 94.4745 63.27 93.74V93.73C63.27 92.9955 62.6745 92.4 61.9399 92.4Z" fill="#D2D3DA"/>
<path id="Vector_36" d="M71.3399 87.15H53.0299C52.2954 87.15 51.7 87.7455 51.7 88.48V88.49C51.7 89.2245 52.2954 89.82 53.0299 89.82H71.3399C72.0745 89.82 72.6699 89.2245 72.6699 88.49V88.48C72.6699 87.7455 72.0745 87.15 71.3399 87.15Z" fill="#D2D3DA"/>
</g>
<g id="Group_7">
<path id="Vector_37" d="M68.5199 42.96C68.5199 42.47 68.2499 42.02 67.8099 41.79L57.6499 36.42C56.9199 36.03 56.0399 36.03 55.2999 36.42L45.1399 41.79C44.7099 42.02 44.4299 42.47 44.4299 42.96C44.4299 43.69 45.0199 44.29 45.7599 44.29H67.1799C67.9099 44.29 68.5099 43.7 68.5099 42.96H68.5199Z" fill="#002652"/>
<path id="Vector_38" d="M56.01 38.04L46.74 42.94C46.41 43.11 46.21 43.45 46.21 43.83V56.52C46.21 57.07 46.66 57.52 47.21 57.52H65.74C66.29 57.52 66.74 57.07 66.74 56.52V43.83C66.74 43.46 66.53 43.12 66.21 42.94L56.94 38.04C56.65 37.88 56.3 37.88 56 38.04H56.01Z" fill="#0C59B5"/>
<path id="Vector_39" d="M54.59 46.28H50.2599C49.9507 46.28 49.7 46.5307 49.7 46.84V51.48C49.7 51.7893 49.9507 52.04 50.2599 52.04H54.59C54.8992 52.04 55.15 51.7893 55.15 51.48V46.84C55.15 46.5307 54.8992 46.28 54.59 46.28Z" fill="#6FCFFA"/>
<path id="Vector_40" d="M58.7399 46.28H62.5299C62.9899 46.28 63.3599 46.65 63.3599 47.11V57.52H57.9099V47.11C57.9099 46.65 58.2799 46.28 58.7399 46.28Z" fill="#6FCFFA"/>
</g>
</g>
</svg>
