<svg width="160" height="160" viewBox="0 0 160 160" fill="none" xmlns="http://www.w3.org/2000/svg">
<g id="Renting 2">
<g id="Group">
<g id="Layer 1">
<path id="Vector" d="M80 152C119.76 152 152 119.76 152 80C152 40.24 119.76 8 80 8C40.24 8 8 40.24 8 80C8 119.76 40.24 152 80 152Z" fill="#E2F5FE"/>
<path id="Vector_2" d="M56.64 105.39L71.48 96.8L59.5 54.36L55.14 52.56C53.68 51.96 52.89 50.38 53.29 48.85L57.68 31.81L54.25 20.5C53.87 19.26 52.73 18.41 51.43 18.41C49.67 18.41 48.3 19.94 48.5 21.68L48.3 26.85C48.26 27.9 47.94 28.92 47.37 29.81L45.19 33.18C44.32 34.43 43.64 35.8 43.2 37.26L38.75 51.91C37.97 54.48 37.45 57.12 37.19 59.79L35.91 73.24C35.67 75.77 34.77 78.18 33.31 80.26L13.68 108.05C18.22 118.76 25.27 128.14 34.1 135.46L49.37 112.26C51.23 109.44 53.72 107.08 56.65 105.39H56.64Z" fill="#99644C"/>
<g id="Group_2" style="mix-blend-mode:multiply" opacity="0.4">
<path id="Vector_3" d="M59.5 54.36L55.14 52.56C53.68 51.96 52.89 50.38 53.29 48.85L57.68 31.81L54.36 20.84C53.55 21.97 53.06 23.35 53.06 24.84V94.88C53.06 98.66 56.14 101.74 59.92 101.74H62.93L71.5 96.78L59.52 54.34L59.5 54.36Z" fill="#8E91A2"/>
</g>
<path id="Vector_4" d="M104.41 38.92L93 35.47L90.56 46.64H103.27C105.45 46.64 107.21 44.87 107.21 42.7C107.21 40.96 106.07 39.43 104.41 38.92Z" fill="#99644C"/>
<path id="Vector_5" d="M93.41 45.8299L103.57 55.0799C104.7 56.1099 105.06 57.7399 104.46 59.1399C103.67 61.0099 101.5 61.8499 99.65 61.0099L92.93 57.9399L93.4 45.8199L93.41 45.8299Z" fill="#99644C"/>
<path id="Vector_6" d="M94.63 60.05L101.51 66.35C103.04 67.75 103.18 70.1 101.84 71.67C100.74 72.97 98.91 73.38 97.35 72.69L93.27 70.88L94.62 60.05H94.63Z" fill="#99644C"/>
<path id="Vector_7" d="M95.37 72.5L99.93 77.06C101.15 78.28 101.24 80.22 100.14 81.54C99.28 82.58 97.88 83 96.59 82.61L94.09 81.84L95.38 72.5H95.37Z" fill="#99644C"/>
<path id="Vector_8" d="M89.72 17H61.91C58.6736 17 56.05 19.6236 56.05 22.86V92.9C56.05 96.1364 58.6736 98.76 61.91 98.76H89.72C92.9564 98.76 95.58 96.1364 95.58 92.9V22.86C95.58 19.6236 92.9564 17 89.72 17Z" fill="white"/>
<path id="Vector_9" d="M132.1 49.9C144.195 49.9 154 40.095 154 28C154 15.9049 144.195 6.09998 132.1 6.09998C120.005 6.09998 110.2 15.9049 110.2 28C110.2 40.095 120.005 49.9 132.1 49.9Z" fill="#F04432" stroke="white" stroke-width="2.19"/>
<path id="Vector_10" d="M61.06 17H90.56V24.71C90.56 25.61 89.83 26.34 88.93 26.34H62.69C61.79 26.34 61.06 25.61 61.06 24.71V17Z" stroke="#D2D3DA" stroke-miterlimit="10"/>
<path id="Vector_11" d="M62.63 89.42H89.01C89.91 89.42 90.64 90.15 90.64 91.05V98.76H60.99V91.05C60.99 90.15 61.72 89.42 62.62 89.42H62.63Z" stroke="#D2D3DA" stroke-miterlimit="10"/>
<path id="Vector_12" d="M87.35 35.48H89.05C89.93 35.48 90.64 36.19 90.64 37.07V78.89C90.64 79.77 89.93 80.48 89.05 80.48H62.59C61.71 80.48 61 79.77 61 78.89V37.07C61 36.19 61.71 35.48 62.59 35.48H78.52" stroke="#D2D3DA" stroke-miterlimit="10" stroke-linecap="round"/>
<path id="Vector_13" d="M89.72 17H61.91C58.6736 17 56.05 19.6236 56.05 22.86V92.9C56.05 96.1364 58.6736 98.76 61.91 98.76H89.72C92.9564 98.76 95.58 96.1364 95.58 92.9V22.86C95.58 19.6236 92.9564 17 89.72 17Z" stroke="#0C59B5" stroke-width="2" stroke-miterlimit="10"/>
<g id="Group_3">
<path id="Vector_14" d="M75.5 66.42H66.59C65.8555 66.42 65.26 67.0154 65.26 67.75V67.76C65.26 68.4945 65.8555 69.09 66.59 69.09H75.5C76.2345 69.09 76.83 68.4945 76.83 67.76V67.75C76.83 67.0154 76.2345 66.42 75.5 66.42Z" fill="#D2D3DA"/>
<path id="Vector_15" d="M84.9 71.67H66.59C65.8555 71.67 65.26 72.2654 65.26 73V73.01C65.26 73.7445 65.8555 74.34 66.59 74.34H84.9C85.6345 74.34 86.23 73.7445 86.23 73.01V73C86.23 72.2654 85.6345 71.67 84.9 71.67Z" fill="#D2D3DA"/>
</g>
<g id="Vector_16" style="mix-blend-mode:multiply" opacity="0.4">
<path d="M85.42 99.81H94.48L89.24 81.79C88.8 80.27 87.33 79.28 85.75 79.43C83.87 79.62 82.53 81.35 82.82 83.22L85.42 99.81Z" fill="#8E91A2"/>
</g>
<path id="Vector_17" d="M83.15 151.83C81.67 150.28 80.36 148.56 79.26 146.72L72.12 134.78C71.15 133.15 70.05 131.6 68.85 130.14L63.84 124.08C62.34 122.27 62.78 119.55 64.76 118.29C66.01 117.5 67.6 117.49 68.86 118.25L75.69 122.38C78.79 124.25 81.42 126.81 83.37 129.86L87.09 135.65C87.83 136.79 89.34 137.14 90.5 136.41C91.23 135.96 91.67 135.16 91.67 134.3V128.25C91.67 125.15 91.43 122.06 90.95 119L84.7 79.12C84.41 77.25 85.75 75.52 87.63 75.33C89.21 75.17 90.67 76.17 91.12 77.69L101.52 113.44L102.2 112.89C104.44 111.07 107.44 110.48 110.21 111.32C111.51 111.71 112.7 112.4 113.69 113.33L115.95 115.46L117.57 115.26C119.67 115 121.79 115.49 123.56 116.64L127.82 119.42L129.38 119.71C131.8 120.17 133.88 121.69 135.05 123.85C137.46 128.31 139.16 133.12 140.09 138.1L142.65 151.8H83.15V151.83Z" fill="#99644C"/>
<path id="Vector_18" d="M82.91 32.93C81.51 32.93 80.36 34.07 80.36 35.48C80.36 36.89 81.5 38.03 82.91 38.03C84.32 38.03 85.46 36.89 85.46 35.48C85.46 34.07 84.32 32.93 82.91 32.93Z" fill="#F04432"/>
<path id="Vector_19" d="M73.53 20.86H78.1" stroke="#0C59B5" stroke-width="1.5" stroke-miterlimit="10" stroke-linecap="round"/>
<g id="Group_4">
<path id="Vector_20" d="M85.77 48.26C85.77 47.85 85.55 47.48 85.19 47.29L76.79 42.85C76.18 42.53 75.46 42.53 74.85 42.85L66.45 47.29C66.09 47.48 65.87 47.85 65.87 48.26C65.87 48.87 66.36 49.36 66.97 49.36H84.69C85.3 49.36 85.79 48.87 85.79 48.26H85.77Z" fill="#002652"/>
<path id="Vector_21" d="M75.43 44.19L67.77 48.24C67.5 48.38 67.33 48.67 67.33 48.97V59.47C67.33 59.93 67.7 60.3 68.16 60.3H83.49C83.95 60.3 84.32 59.93 84.32 59.47V48.97C84.32 48.66 84.15 48.38 83.88 48.24L76.22 44.19C75.98 44.06 75.69 44.06 75.44 44.19H75.43Z" fill="#0C59B5"/>
<path id="Vector_22" d="M74.25 51.01H70.68C70.4204 51.01 70.21 51.2204 70.21 51.48V55.31C70.21 55.5696 70.4204 55.78 70.68 55.78H74.25C74.5095 55.78 74.72 55.5696 74.72 55.31V51.48C74.72 51.2204 74.5095 51.01 74.25 51.01Z" fill="#6FCFFA"/>
<path id="Vector_23" d="M77.68 51.01H80.82C81.2 51.01 81.5 51.32 81.5 51.69V60.3H76.99V51.69C76.99 51.31 77.3 51.01 77.67 51.01H77.68Z" fill="#6FCFFA"/>
</g>
</g>
</g>
<path id="Vector_24" d="M131.9 50.8C143.995 50.8 153.8 40.995 153.8 28.9C153.8 16.805 143.995 7 131.9 7C119.805 7 110 16.805 110 28.9C110 40.995 119.805 50.8 131.9 50.8Z" fill="#F04432" stroke="white" stroke-width="2.19"/>
<path id="Vector_25" d="M138.68 35.6C139.99 35.6 141.05 34.54 141.06 33.23C141.06 32.56 140.79 31.93 140.32 31.46L138.75 29.88V25.2C138.75 23.36 138.02 21.6 136.72 20.3C135.42 19 133.65 18.27 131.81 18.27C127.98 18.27 124.88 21.37 124.88 25.2V29.88L123.31 31.46C122.84 31.93 122.57 32.57 122.57 33.23C122.57 34.54 123.64 35.6 124.95 35.6H138.7H138.68Z" stroke="white" stroke-width="2" stroke-linecap="round" stroke-linejoin="round"/>
<path id="Vector_26" d="M129.95 39.53H133.65" stroke="white" stroke-width="2" stroke-linecap="round" stroke-linejoin="round"/>
</g>
</svg>
