<svg width="160" height="160" viewBox="0 0 160 160" fill="none" xmlns="http://www.w3.org/2000/svg">
<g clip-path="url(#clip0_334_833)">
<rect width="160" height="160" fill="white"/>
<path d="M80 152C119.76 152 152 119.76 152 80C152 40.24 119.76 8 80 8C40.24 8 8 40.24 8 80C8 119.76 40.24 152 80 152Z" fill="#E2F5FE"/>
<path d="M69.09 109.86V122.16" stroke="#9EA5B0" stroke-width="0.57" stroke-linejoin="round"/>
<path d="M90.21 122.16V109.86" stroke="#9EA5B0" stroke-width="0.57" stroke-linejoin="round"/>
<path d="M93.99 122.16H65.31V124.8H93.99V122.16Z" stroke="#9EA5B0" stroke-width="0.57" stroke-linejoin="round"/>
<path d="M27.13 46.04H132.16C133.42 46.04 134.44 47.06 134.44 48.32V99.98H24.86V48.32C24.86 47.06 25.88 46.04 27.14 46.04H27.13Z" stroke="#9EA5B0" stroke-width="0.57" stroke-linejoin="bevel"/>
<path d="M134.44 99.98V107.58C134.44 108.84 133.42 109.86 132.16 109.86H27.13C25.87 109.86 24.85 108.84 24.85 107.58V99.98" stroke="#9EA5B0" stroke-width="0.57" stroke-linejoin="bevel"/>
<path d="M126.76 134.74H16.61C15.87 134.74 15.26 135.34 15.26 136.09V139.25C15.26 139.99 15.86 140.6 16.61 140.6H118.9" stroke="#9EA5B0" stroke-width="0.57" stroke-linejoin="bevel"/>
<path d="M52.05 130.56L51.69 131.99C51.61 132.31 51.85 132.62 52.19 132.62H82.85C83.18 132.62 83.43 132.31 83.35 131.99L82.99 130.56C82.93 130.33 82.73 130.17 82.49 130.17H52.54C52.31 130.17 52.1 130.33 52.04 130.56H52.05Z" stroke="#9EA5B0" stroke-width="0.57" stroke-linejoin="bevel"/>
<path d="M41.24 130.56L40.88 131.99C40.8 132.31 41.04 132.62 41.38 132.62H49.35C49.68 132.62 49.93 132.31 49.85 131.99L49.49 130.56C49.43 130.33 49.23 130.17 48.99 130.17H41.73C41.5 130.17 41.29 130.33 41.23 130.56H41.24Z" stroke="#9EA5B0" stroke-width="0.57" stroke-linejoin="bevel"/>
<path d="M30.43 130.56L30.07 131.99C29.99 132.31 30.23 132.62 30.57 132.62H38.54C38.87 132.62 39.12 132.31 39.04 131.99L38.68 130.56C38.62 130.33 38.42 130.17 38.18 130.17H30.92C30.69 130.17 30.48 130.33 30.42 130.56H30.43Z" stroke="#9EA5B0" stroke-width="0.57" stroke-linejoin="bevel"/>
<path d="M19.83 130.56L19.47 131.99C19.39 132.31 19.63 132.62 19.97 132.62H27.94C28.27 132.62 28.52 132.31 28.44 131.99L28.08 130.56C28.02 130.33 27.82 130.17 27.58 130.17H20.32C20.09 130.17 19.88 130.33 19.82 130.56H19.83Z" stroke="#9EA5B0" stroke-width="0.57" stroke-linejoin="bevel"/>
<path d="M106.96 130.56L106.6 131.99C106.52 132.31 106.76 132.62 107.1 132.62H115.07C115.4 132.62 115.65 132.31 115.57 131.99L115.21 130.56C115.15 130.33 114.95 130.17 114.71 130.17H107.45C107.22 130.17 107.01 130.33 106.95 130.56H106.96Z" stroke="#9EA5B0" stroke-width="0.57" stroke-linejoin="bevel"/>
<path d="M96.15 130.56L95.79 131.99C95.71 132.31 95.95 132.62 96.29 132.62H104.26C104.59 132.62 104.84 132.31 104.76 131.99L104.4 130.56C104.34 130.33 104.14 130.17 103.9 130.17H96.64C96.41 130.17 96.2 130.33 96.14 130.56H96.15Z" stroke="#9EA5B0" stroke-width="0.57" stroke-linejoin="bevel"/>
<path d="M85.54 130.56L85.18 131.99C85.1 132.31 85.34 132.62 85.68 132.62H93.65C93.98 132.62 94.23 132.31 94.15 131.99L93.79 130.56C93.73 130.33 93.53 130.17 93.29 130.17H86.03C85.8 130.17 85.59 130.33 85.53 130.56H85.54Z" stroke="#9EA5B0" stroke-width="0.57" stroke-linejoin="bevel"/>
<path d="M117.77 130.56L117.41 131.99C117.33 132.31 117.57 132.62 117.91 132.62H125.88C126.21 132.62 126.46 132.31 126.38 131.99L126.02 130.56C125.96 130.33 125.76 130.17 125.52 130.17H118.26C118.03 130.17 117.82 130.33 117.76 130.56H117.77Z" stroke="#9EA5B0" stroke-width="0.57" stroke-linejoin="bevel"/>
<path d="M79.65 107.2C80.9092 107.2 81.93 106.179 81.93 104.92C81.93 103.661 80.9092 102.64 79.65 102.64C78.3908 102.64 77.37 103.661 77.37 104.92C77.37 106.179 78.3908 107.2 79.65 107.2Z" stroke="#9EA5B0" stroke-width="0.57" stroke-linejoin="bevel"/>
<path d="M17.41 35.65H118.63V84.98C118.63 86.66 117.27 88.02 115.59 88.02H20.45C18.77 88.02 17.41 86.66 17.41 84.98V35.65Z" fill="white" stroke="#D2D3DA" stroke-miterlimit="10"/>
<path d="M20.33 26.47H115.7C117.31 26.47 118.63 27.78 118.63 29.4V35.65H17.41V29.4C17.41 27.79 18.72 26.47 20.34 26.47H20.33Z" fill="#0C59B5" stroke="#0C59B5" stroke-miterlimit="10"/>
<path d="M102.35 29.64H40.25C39.4381 29.64 38.78 30.2982 38.78 31.11C38.78 31.9219 39.4381 32.58 40.25 32.58H102.35C103.162 32.58 103.82 31.9219 103.82 31.11C103.82 30.2982 103.162 29.64 102.35 29.64Z" fill="white"/>
<path d="M23.76 32.03C24.2957 32.03 24.73 31.5957 24.73 31.06C24.73 30.5243 24.2957 30.09 23.76 30.09C23.2243 30.09 22.79 30.5243 22.79 31.06C22.79 31.5957 23.2243 32.03 23.76 32.03Z" fill="white"/>
<path d="M27.91 32.03C28.4457 32.03 28.88 31.5957 28.88 31.06C28.88 30.5243 28.4457 30.09 27.91 30.09C27.3743 30.09 26.94 30.5243 26.94 31.06C26.94 31.5957 27.3743 32.03 27.91 32.03Z" fill="white"/>
<path d="M32.06 32.03C32.5957 32.03 33.03 31.5957 33.03 31.06C33.03 30.5243 32.5957 30.09 32.06 30.09C31.5243 30.09 31.09 30.5243 31.09 31.06C31.09 31.5957 31.5243 32.03 32.06 32.03Z" fill="white"/>
<path d="M132.1 49.9C144.195 49.9 154 40.095 154 28C154 15.905 144.195 6.10001 132.1 6.10001C120.005 6.10001 110.2 15.905 110.2 28C110.2 40.095 120.005 49.9 132.1 49.9Z" fill="#F04432" stroke="white" stroke-width="2.19"/>
<path d="M123.61 32.66L128.97 38.02C131.17 40.22 134.74 40.22 136.95 38.02L142.14 32.83C144.34 30.63 144.34 27.06 142.14 24.85L136.77 19.51C135.65 18.39 134.1 17.78 132.51 17.87L126.6 18.15C124.24 18.26 122.36 20.14 122.24 22.49L121.96 28.4C121.89 30 122.49 31.54 123.62 32.67L123.61 32.66Z" stroke="white" stroke-width="2" stroke-linecap="round" stroke-linejoin="round"/>
<path d="M129.91 28.76C131.54 28.76 132.87 27.44 132.87 25.8C132.87 24.16 131.55 22.84 129.91 22.84C128.27 22.84 126.95 24.16 126.95 25.8C126.95 27.44 128.27 28.76 129.91 28.76Z" stroke="white" stroke-width="2" stroke-linecap="round"/>
<path d="M101.26 45.3H77.37V49.83H101.26V45.3Z" fill="#8E91A2"/>
<path opacity="0.4" d="M109.59 52.95H77.37V55.41H109.59V52.95Z" fill="#D2D3DA"/>
<path opacity="0.4" d="M109.59 58.28H77.37V60.74H109.59V58.28Z" fill="#D2D3DA"/>
<path opacity="0.4" d="M109.59 63.62H77.37V66.08H109.59V63.62Z" fill="#D2D3DA"/>
<path opacity="0.4" d="M109.59 68.95H77.37V71.41H109.59V68.95Z" fill="#D2D3DA"/>
<path d="M125.528 103.17L120.098 97.655L115.423 102.258L120.854 107.773L125.528 103.17Z" fill="#0C59B5"/>
<path d="M120.739 109.491L139.382 128.423C140.087 129.139 141.24 129.148 141.956 128.442L145.86 124.597C146.577 123.892 146.585 122.74 145.88 122.023L127.237 103.092C126.532 102.376 125.38 102.367 124.663 103.072L120.759 106.917C120.043 107.623 120.034 108.775 120.739 109.491Z" fill="#002652"/>
<path d="M103.83 106.8C115.417 106.8 124.81 97.4069 124.81 85.82C124.81 74.2331 115.417 64.84 103.83 64.84C92.243 64.84 82.85 74.2331 82.85 85.82C82.85 97.4069 92.243 106.8 103.83 106.8Z" fill="#0C59B5"/>
<path d="M103.83 102.72C113.164 102.72 120.73 95.1536 120.73 85.82C120.73 76.4864 113.164 68.92 103.83 68.92C94.4964 68.92 86.93 76.4864 86.93 85.82C86.93 95.1536 94.4964 102.72 103.83 102.72Z" fill="white"/>
<path d="M99.74 86.43C99.51 86.86 99.16 87.1 98.83 87.19L100.53 90.69H97.87L96.56 87.7H95.22V90.69H92.8V82.23H97.49C98.51 82.23 99.19 82.53 99.58 83.05C99.9 83.48 100.06 84.07 100.06 84.87C100.06 85.55 99.93 86.07 99.73 86.43H99.74ZM97.56 84.53C97.44 84.3 97.22 84.2 96.9 84.2H95.25V85.89H96.95C97.2 85.89 97.44 85.8 97.53 85.63C97.6 85.49 97.65 85.26 97.65 85.09C97.65 84.89 97.63 84.65 97.56 84.53Z" fill="#F04432"/>
<path d="M112.56 89.51H103.58V90.7H112.56V89.51Z" fill="#F04432"/>
<path d="M108.95 72.14H93.95C93.27 72.64 92.6 73.17 91.98 73.78C91.07 74.67 90.3 75.65 89.64 76.67H108.95V72.14Z" fill="#D2D3DA"/>
<path d="M31.68 55.33H31.02C29.93 55.33 29.04 54.44 29.04 53.35C29.04 52.62 29.45 51.94 30.1 51.6L45.27 43.58C46.37 43 47.68 43 48.78 43.58L63.95 51.6C64.6 51.94 65.01 52.62 65.01 53.35C65.01 54.44 64.12 55.33 63.03 55.33H62.37" fill="#8E91A2"/>
<path d="M31.68 55.33H31.02C29.93 55.33 29.04 54.44 29.04 53.35C29.04 52.62 29.45 51.94 30.1 51.6L45.27 43.58C46.37 43 47.68 43 48.78 43.58L63.95 51.6C64.6 51.94 65.01 52.62 65.01 53.35C65.01 54.44 64.12 55.33 63.03 55.33H62.37" stroke="#8E91A2" stroke-linejoin="bevel"/>
<path d="M46.32 46L32.48 53.32C31.99 53.58 31.68 54.09 31.68 54.64V73.59C31.68 74.42 32.35 75.09 33.18 75.09H60.85C61.68 75.09 62.35 74.42 62.35 73.59V54.64C62.35 54.09 62.04 53.58 61.55 53.32L47.71 46C47.27 45.77 46.75 45.77 46.31 46H46.32Z" fill="white" stroke="#8E91A2" stroke-linejoin="bevel"/>
<path d="M44.2 58.31H37.74C37.276 58.31 36.9 58.6861 36.9 59.15V66.07C36.9 66.5339 37.276 66.91 37.74 66.91H44.2C44.6639 66.91 45.04 66.5339 45.04 66.07V59.15C45.04 58.6861 44.6639 58.31 44.2 58.31Z" stroke="#8E91A2" stroke-linejoin="bevel"/>
<path d="M50.39 58.31H56.06C56.74 58.31 57.29 58.86 57.29 59.54V75.09H49.15V59.54C49.15 58.86 49.7 58.31 50.38 58.31H50.39Z" stroke="#8E91A2" stroke-linejoin="bevel"/>
</g>
<path d="M131.9 49.8C143.995 49.8 153.8 39.995 153.8 27.9C153.8 15.805 143.995 6 131.9 6C119.805 6 110 15.805 110 27.9C110 39.995 119.805 49.8 131.9 49.8Z" fill="#F04432" stroke="white" stroke-width="2.19"/>
<path d="M128.62 16.17L122.69 20.79C121.7 21.56 120.9 23.2 120.9 24.44V32.59C120.9 35.14 122.98 37.23 125.53 37.23H138.27C140.82 37.23 142.9 35.14 142.9 32.6V24.59C142.9 23.26 142.01 21.55 140.92 20.8L134.12 16.04C132.58 14.96 130.1 15.02 128.62 16.17Z" stroke="white" stroke-width="2" stroke-linecap="round" stroke-linejoin="round"/>
<path d="M136.85 25.7L132.23 30.32L130.47 27.68L126.95 31.2" stroke="white" stroke-width="2" stroke-linecap="round" stroke-linejoin="round"/>
<path d="M134.65 25.7H136.85V27.9" stroke="white" stroke-width="2" stroke-linecap="round" stroke-linejoin="round"/>
<defs>
<clipPath id="clip0_334_833">
<rect width="160" height="160" fill="white"/>
</clipPath>
</defs>
</svg>
